<svg height="512pt" viewBox="0 -76 512 512" width="512pt" xmlns="http://www.w3.org/2000/svg" xmlns:xlink="http://www.w3.org/1999/xlink"><linearGradient id="a" gradientUnits="userSpaceOnUse" x1="314.0856314292" x2="314.0856314292" y1="285.0236283162" y2="325.3387264234"><stop offset="0" stop-color="#ff6e3a"/><stop offset=".1596" stop-color="#ff6440"/><stop offset=".4266" stop-color="#ff4b52"/><stop offset=".7662" stop-color="#ff216e"/><stop offset="1" stop-color="#ff0084"/></linearGradient><linearGradient id="b"><stop offset="0" stop-color="#ff0084" stop-opacity="0"/><stop offset=".0737" stop-color="#f4087e" stop-opacity=".07451"/><stop offset=".3347" stop-color="#d2216b" stop-opacity=".333333"/><stop offset=".583" stop-color="#ba335e" stop-opacity=".584314"/><stop offset=".8111" stop-color="#ab3d56" stop-opacity=".811765"/><stop offset="1" stop-color="#a64153"/></linearGradient><linearGradient id="c" gradientUnits="userSpaceOnUse" x1="247.3203007802" x2="79.1052386964" xlink:href="#b" y1="331.9380076904" y2="163.7229456066"/><linearGradient id="d" gradientUnits="userSpaceOnUse" x1="215.1385771482" x2="112.4138647734" xlink:href="#b" y1="304.9969576828" y2="202.272245308"/><linearGradient id="e" gradientUnits="userSpaceOnUse" x1="308.1022563092" x2="205.3770419734" xlink:href="#b" y1="304.999065919" y2="202.2738515832"/><linearGradient id="f" gradientUnits="userSpaceOnUse" x1="401.067340961" x2="298.3343964258" xlink:href="#b" y1="305.0024792538" y2="202.2695347186"/><linearGradient id="g" gradientUnits="userSpaceOnUse" x1="480.4397233016" x2="410.3171770924" xlink:href="#b" y1="291.4125879242" y2="221.290041715"/><linearGradient id="h" gradientUnits="userSpaceOnUse" x1="136.0546215982" x2="213.230522995" y1="259.5730009098" y2="259.5730009098"><stop offset="0" stop-color="#45425a"/><stop offset="1" stop-color="#2d3251"/></linearGradient><linearGradient id="i"><stop offset="0" stop-color="#ecf7ff"/><stop offset="1" stop-color="#c2e0ff"/></linearGradient><linearGradient id="j" gradientUnits="userSpaceOnUse" x1="229.0165940918" x2="306.1925958808" xlink:href="#i" y1="259.5730009098" y2="259.5730009098"/><linearGradient id="k" gradientUnits="userSpaceOnUse" x1="321.9786669776" x2="399.1546687666" xlink:href="#i" y1="259.5730009098" y2="259.5730009098"/><linearGradient id="l" gradientUnits="userSpaceOnUse" x1="414.9407398634" x2="492.1167416524" xlink:href="#i" y1="259.5730009098" y2="259.5730009098"/><linearGradient id="m"><stop offset="0" stop-color="#ffc738"/><stop offset=".4286" stop-color="#ffbb23"/><stop offset="1" stop-color="#ffa700"/></linearGradient><linearGradient id="n" gradientUnits="userSpaceOnUse" x1="34.5728650516" x2="228.0769230998" xlink:href="#m" y1="204.30619128" y2="320.1898112698"/><linearGradient id="o" gradientUnits="userSpaceOnUse" x1="107.4406359698" x2="107.4406359698" xlink:href="#m" y1="139.0609993234" y2="165.6630248716"/><linearGradient id="p"><stop offset="0" stop-color="#ffa700" stop-opacity="0"/><stop offset=".0206" stop-color="#fea600" stop-opacity=".019608"/><stop offset=".6348" stop-color="#ec8c00" stop-opacity=".635294"/><stop offset="1" stop-color="#e58200"/></linearGradient><linearGradient id="q" gradientUnits="userSpaceOnUse" x1="168.2857381926" x2="74.8376666666" xlink:href="#p" y1="234.6749321722" y2="76.8389176854"/><linearGradient id="r" gradientUnits="userSpaceOnUse" x1="215.9021602214" x2="170.7958443692" xlink:href="#p" y1="184.5440871022" y2="138.446398275"/><linearGradient id="s" gradientUnits="userSpaceOnUse" x1="107.440736362" x2="107.440736362" y1="122.540258107" y2="173.3566815108"><stop offset="0" stop-color="#3b395f"/><stop offset=".0633" stop-color="#37355a"/><stop offset=".4033" stop-color="#232543"/><stop offset=".7232" stop-color="#171b35"/><stop offset="1" stop-color="#131830"/></linearGradient><linearGradient id="t" gradientUnits="userSpaceOnUse" x1="107.440736362" x2="107.440736362" xlink:href="#p" y1="324.7815497134" y2="363.067922243"/><linearGradient id="u" gradientUnits="userSpaceOnUse" x1="196.7396986542" x2="111.7614158656" xlink:href="#p" y1="357.7800642846" y2="272.801781496"/><radialGradient id="v" cx="82.3433891074" cy="240.880575623" gradientUnits="userSpaceOnUse" r="121.5171282928"><stop offset="0" stop-color="#ff6e3a"/><stop offset=".2085" stop-color="#ff6a3c"/><stop offset=".396" stop-color="#ff5f44"/><stop offset=".5755" stop-color="#ff4d50"/><stop offset=".7501" stop-color="#ff3361"/><stop offset=".9195" stop-color="#ff1278"/><stop offset="1" stop-color="#ff0084"/></radialGradient><linearGradient id="w" gradientUnits="userSpaceOnUse" x1="158.6244948256" x2="104.7443022622" xlink:href="#b" y1="319.664860456" y2="265.7845675004"/><linearGradient id="x" gradientTransform="matrix(.709873 .709873 -.709873 .709873 -1254.622268 -807.891225)" gradientUnits="userSpaceOnUse" x1="1663.8802" x2="1771.1501" y1="-201.2267" y2="-201.2267"><stop offset="0" stop-color="#f9f9f9"/><stop offset="1" stop-color="#e6e6e6"/></linearGradient><radialGradient id="y" cx="117.4502402708" cy="292.3859906954" gradientUnits="userSpaceOnUse" r="112.9985489462"><stop offset="0" stop-color="#fff" stop-opacity="0"/><stop offset=".8587" stop-color="#fff" stop-opacity=".858824"/><stop offset="1" stop-color="#fff"/></radialGradient><path d="m512 231.511719v56.121093c0 18.011719-14.59375 32.613282-32.601562 32.613282h-330.625c-18.007813 0-32.601563-14.601563-32.601563-32.613282v-56.121093c0-18.011719 14.59375-32.613281 32.601563-32.613281h330.625c18.007812 0 32.601562 14.605468 32.601562 32.613281zm0 0" fill="url(#a)"/><path d="m116.171875 231.511719v56.125c0 18.007812 14.59375 32.609375 32.601563 32.609375h187.136718l-121.269531-121.269532v-.078124h-65.867187c-18.007813 0-32.601563 14.605468-32.601563 32.613281zm0 0" fill="url(#c)"/><path d="m284.632812 320.246094h-108.585937c-14.449219-14.449219-25.265625-25.246094-25.761719-25.726563-.007812-.007812-.007812-.015625-.015625-.015625-1.914062-1.347656-2.859375-3.109375-2.859375-5.292968 0-1.664063.496094-3.140626 1.476563-4.425782l6.859375-9.714844c-.132813-.242187-15.335938-14.78125-15.972656-16.382812l-.007813-.007812c-1.382813-.496094-2.382813-1.433594-3-2.824219l-.1875-.476563c-.105469-.300781-.195313-.621094-.265625-.957031-.023438-.117187-.050781-.238281-.070312-.363281-.019532-.105469-.035157-.210938-.054688-.328125-.035156-.191407-.050781-.40625-.070312-.609375-.042969-.425782-.0625-.867188-.0625-1.335938 0-2.078125.292968-3.929687.894531-5.558594.59375-1.617187 1.347656-2.433593 2.265625-2.433593.328125 0 .628906.125.894531.382812l27.503906 8.988281-.957031-23.554687c.125-2.257813.921875-3.992187 2.382812-5.1875 1.460938-1.203125 3.265626-1.804687 5.40625-1.804687 2.140626 0 3.921876.582031 5.320313 1.734374l.917969.945313c0 .011719.011718.011719.011718.011719l19.46875 19.988281c.078126.035156.160157.070313.238282.117187l3.398437-1.238281c1.027344-.257812 1.734375-.382812 2.113281-.382812 2.054688 0 3.789063.914062 5.195313 2.726562l.027344.027344c.671875.707031 14.664062 14.734375 33.777343 33.894531 3.417969 3.421875 7 7.007813 10.691407 10.714844 9.195312 9.214844 19.117187 19.144531 29.027343 29.089844zm0 0" fill="url(#d)"/><path d="m377.601562 320.246094h-108.585937c-14.460937-14.449219-25.277344-25.246094-25.773437-25.726563-.007813-.007812-.007813-.015625-.015626-.015625-1.902343-1.347656-2.859374-3.109375-2.859374-5.292968 0-1.664063.496093-3.140626 1.488281-4.425782l3.058593-4.34375 3.796876-5.371094c-.132813-.242187-15.34375-14.78125-15.972657-16.382812l-.007812-.007812c-.921875-.335938-1.683594-.859376-2.265625-1.585938-.097656-.121094-.1875-.246094-.273438-.378906-.089844-.132813-.160156-.257813-.238281-.398438-.074219-.117187-.132813-.238281-.1875-.363281-.054687-.117187-.105469-.238281-.152344-.363281-.140625-.363282-.253906-.75-.34375-1.167969-.027343-.117187-.054687-.238281-.070312-.363281-.019531-.105469-.035157-.210938-.054688-.328125-.035156-.191407-.050781-.40625-.070312-.609375-.042969-.425782-.0625-.867188-.0625-1.335938 0-2.078125.300781-3.929687.894531-5.558594.601562-1.617187 1.355469-2.433593 2.273438-2.433593.328124 0 .621093.125.894531.382812l27.503906 8.988281-.964844-23.554687c.125-2.257813.929688-3.992187 2.390625-5.1875 1.457032-1.203125 3.265625-1.804687 5.40625-1.804687s3.910156.582031 5.308594 1.734374l.914062.9375c.007813.007813.007813.019532.015626.019532l19.480468 19.988281c.078125.035156.148438.070313.226563.117187l3.398437-1.238281c1.027344-.257812 1.734375-.382812 2.125-.382812 2.042969 0 3.78125.914062 5.195313 2.726562.007812.007813.019531.019531.027343.027344.671876.707031 14.664063 14.734375 33.777344 33.894531 3.417969 3.421875 7 7.007813 10.691406 10.714844 9.195313 9.214844 19.109376 19.144531 29.03125 29.089844zm0 0" fill="url(#e)"/><path d="m470.574219 320.246094h-108.601563c-14.453125-14.449219-25.265625-25.246094-25.761718-25.726563-.011719-.007812-.011719-.015625-.019532-.015625-1.910156-1.347656-2.859375-3.109375-2.859375-5.292968 0-1.664063.496094-3.140626 1.488281-4.425782l3.0625-4.34375 3.785157-5.371094c-.128907-.242187-15.335938-14.78125-15.972657-16.382812l-.007812-.007812c-1.378906-.496094-2.378906-1.433594-3-2.824219-.0625-.160157-.125-.316407-.1875-.476563-.070312-.195312-.128906-.40625-.183594-.621094-.035156-.140624-.070312-.292968-.105468-.441406-.035157-.1875-.074219-.382812-.097657-.585937-.035156-.195313-.054687-.40625-.074219-.609375-.042968-.425782-.058593-.867188-.058593-1.335938 0-2.078125.300781-3.929687.890625-5.558594.59375-1.617187 1.347656-2.433593 2.265625-2.433593.328125 0 .628906.125.894531.378906l27.503906 8.992187-.953125-23.558593c.121094-2.253907.917969-3.988281 2.378907-5.183594 1.460937-1.203125 3.265624-1.804687 5.414062-1.804687 2.132812 0 3.914062.582031 5.3125 1.734374l.917969.945313c0 .007813.011719.007813.011719.007813l19.46875 19.992187c.078124.035156.160156.070313.238281.117187l3.398437-1.242187c1.027344-.253906 1.734375-.378906 2.113282-.378906 2.054687 0 3.789062.910156 5.195312 2.726562.007812.007813.007812.007813.019531.015625.503907.53125 14.558594 14.621094 33.789063 33.90625 3.414062 3.421875 6.988281 7.007813 10.6875 10.714844 9.199218 9.214844 19.117187 19.152344 29.046875 29.089844zm0 0" fill="url(#f)"/><path d="m512 268.609375v19.023437c0 18.011719-14.59375 32.613282-32.601562 32.613282h-24.460938c-14.46875-14.460938-25.285156-25.273438-25.769531-25.726563-.011719-.007812-.011719-.019531-.019531-.019531-1.902344-1.34375-2.847657-3.105469-2.847657-5.289062 0-1.664063.484375-3.140626 1.476563-4.425782l3.0625-4.34375 3.796875-5.375c-.132813-.238281-15.347657-14.777344-15.972657-16.378906l-.011718-.011719c-.929688-.335937-1.679688-.855469-2.265625-1.582031-.085938-.125-.183594-.25-.273438-.382812-.167969-.261719-.328125-.546876-.46875-.855469l-.1875-.480469c-.070312-.191406-.128906-.40625-.183593-.617188-.035157-.140624-.070313-.292968-.105469-.445312-.035157-.183594-.070313-.378906-.097657-.582031-.035156-.195313-.054687-.40625-.070312-.609375-.046875-.425782-.0625-.867188-.0625-1.335938 0-2.082031.300781-3.929687.894531-5.558594.601563-1.621093 1.351563-2.433593 2.273438-2.433593.328125 0 .621093.125.894531.378906l27.503906 8.992187-.964844-23.558593c.132813-2.257813.929688-3.992188 2.386719-5.1875 1.460938-1.203125 3.269531-1.804688 5.410157-1.804688 2.140624 0 3.910156.585938 5.308593 1.734375l.910157.9375c.011718.011719.019531.019532.019531.019532l19.476562 19.992187c.082031.035156.160157.070313.242188.113281l3.398437-1.238281c1.015625-.257813 1.722656-.378906 2.113282-.378906 2.054687 0 3.777343.910156 5.195312 2.726562.007812.007813.019531.023438.027344.035157.554687.566406 9.160156 9.203124 21.972656 22.054687zm0 0" fill="url(#g)"/><path d="m211.113281 246.519531c-1.414062-1.816406-3.144531-2.726562-5.195312-2.726562-.386719 0-1.09375.128906-2.117188.382812l-22.519531 8.195313.769531-23.03125c-.128906-2.175782-.890625-3.839844-2.289062-4.992188-1.398438-1.148437-3.171875-1.726562-5.3125-1.726562-2.144531 0-3.949219.601562-5.410157 1.796875-1.460937 1.199219-2.257812 2.929687-2.386718 5.191406l.964844 23.5625-27.507813-8.996094c-.269531-.253906-.566406-.382812-.890625-.382812-.921875 0-1.675781.8125-2.273438 2.4375-.59375 1.625-.890624 3.476562-.890624 5.554687 0 3.898438 1.347656 6.238282 4.039062 7.015625l22.519531 6.542969-13.722656 19.441406c-.988281 1.285156-1.480469 2.761719-1.480469 4.425782 0 2.183593.949219 3.945312 2.855469 5.292968 1.902344 1.347656 3.808594 2.019532 5.714844 2.019532 2.152343 0 3.742187-.832032 4.757812-2.5l13.710938-20.59375 13.953125 20.398437c1.15625 1.800781 2.886718 2.695313 5.195312 2.695313 2.183594 0 4.140625-.703126 5.871094-2.117188 1.734375-1.410156 2.597656-3.203125 2.597656-5.386719 0-1.796875-.382812-3.144531-1.15625-4.042969l-14.625-20.402343 22.132813-5.773438c3.203125-.777343 4.808593-2.859375 4.808593-6.238281.003907-2.210938-.703124-4.222656-2.113281-6.042969zm0 0" fill="url(#h)"/><path d="m304.074219 246.519531c-1.410157-1.816406-3.144531-2.726562-5.195313-2.726562-.382812 0-1.089844.128906-2.117187.382812l-22.515625 8.195313.769531-23.03125c-.128906-2.175782-.894531-3.839844-2.292969-4.992188-1.398437-1.148437-3.167968-1.726562-5.3125-1.726562-2.144531 0-3.945312.601562-5.410156 1.796875-1.460938 1.199219-2.257812 2.929687-2.382812 5.191406l.960937 23.5625-27.503906-8.996094c-.269531-.253906-.570313-.382812-.894531-.382812-.917969 0-1.675782.8125-2.269532 2.4375s-.894531 3.476562-.894531 5.554687c0 3.898438 1.347656 6.238282 4.042969 7.015625l22.519531 6.542969-13.722656 19.441406c-.992188 1.285156-1.484375 2.761719-1.484375 4.425782 0 2.183593.949218 3.945312 2.859375 5.292968 1.902343 1.347656 3.804687 2.019532 5.710937 2.019532 2.15625 0 3.746094-.832032 4.761719-2.5l13.710937-20.59375 13.953126 20.398437c1.152343 1.800781 2.886718 2.695313 5.195312 2.695313 2.179688 0 4.136719-.703126 5.871094-2.117188 1.730468-1.410156 2.597656-3.203125 2.597656-5.386719 0-1.796875-.386719-3.144531-1.15625-4.042969l-14.625-20.402343 22.132812-5.773438c3.203126-.777343 4.808594-2.859375 4.808594-6.238281 0-2.210938-.707031-4.222656-2.117187-6.042969zm0 0" fill="url(#j)"/><path d="m397.039062 246.519531c-1.414062-1.816406-3.144531-2.726562-5.199218-2.726562-.382813 0-1.089844.128906-2.117188.382812l-22.515625 8.195313.769531-23.03125c-.128906-2.175782-.894531-3.839844-2.292968-4.992188-1.398438-1.148437-3.167969-1.726562-5.308594-1.726562-2.144531 0-3.949219.601562-5.410156 1.796875-1.464844 1.199219-2.261719 2.929687-2.386719 5.191406l.964844 23.5625-27.507813-8.996094c-.269531-.253906-.566406-.382812-.894531-.382812-.917969 0-1.671875.8125-2.269531 2.4375-.59375 1.625-.890625 3.476562-.890625 5.554687 0 3.898438 1.34375 6.238282 4.039062 7.015625l22.519531 6.542969-13.722656 19.441406c-.988281 1.285156-1.480468 2.761719-1.480468 4.425782 0 2.183593.949218 3.945312 2.855468 5.292968 1.902344 1.347656 3.808594 2.019532 5.714844 2.019532 2.152344 0 3.742188-.832032 4.757812-2.5l13.710938-20.59375 13.953125 20.398437c1.15625 1.800781 2.886719 2.695313 5.195313 2.695313 2.179687 0 4.136718-.703126 5.871093-2.117188 1.734375-1.410156 2.597657-3.203125 2.597657-5.386719 0-1.796875-.382813-3.144531-1.15625-4.042969l-14.625-20.402343 22.132812-5.773438c3.207031-.777343 4.808594-2.859375 4.808594-6.238281 0-2.210938-.703125-4.222656-2.113282-6.042969zm0 0" fill="url(#k)"/><path d="m490 246.519531c-1.414062-1.816406-3.144531-2.726562-5.195312-2.726562-.386719 0-1.09375.128906-2.121094.382812l-22.515625 8.195313.769531-23.03125c-.128906-2.175782-.890625-3.839844-2.289062-4.992188-1.398438-1.148437-3.171876-1.726562-5.3125-1.726562-2.144532 0-3.949219.601562-5.410157 1.796875-1.460937 1.199219-2.257812 2.929687-2.382812 5.191406l.960937 23.5625-27.507812-8.996094c-.269532-.253906-.566406-.382812-.890625-.382812-.921875 0-1.675781.8125-2.273438 2.4375-.59375 1.625-.890625 3.476562-.890625 5.554687 0 3.898438 1.347656 6.238282 4.039063 7.015625l22.519531 6.542969-13.722656 19.441406c-.988282 1.285156-1.480469 2.761719-1.480469 4.425782 0 2.183593.949219 3.945312 2.855469 5.292968 1.902344 1.347656 3.808594 2.019532 5.714844 2.019532 2.152343 0 3.742187-.832032 4.757812-2.5l13.710938-20.59375 13.953124 20.398437c1.15625 1.800781 2.886719 2.695313 5.195313 2.695313 2.179687 0 4.136719-.703126 5.871094-2.117188 1.734375-1.410156 2.597656-3.203125 2.597656-5.386719 0-1.796875-.386719-3.144531-1.15625-4.042969l-14.625-20.402343 22.132813-5.773438c3.207031-.777343 4.8125-2.859375 4.8125-6.238281 0-2.210938-.707032-4.222656-2.117188-6.042969zm0 0" fill="url(#l)"/><path d="m203.042969 346.976562c-63.324219 17.289063-127.882813 17.289063-191.203125 0-6.996094-1.910156-11.839844-8.289062-11.839844-15.542968v-166.976563c0-7.253906 4.84375-13.636719 11.839844-15.546875 63.320312-17.285156 127.878906-17.285156 191.203125 0 6.996093 1.910156 11.839843 8.292969 11.839843 15.546875v166.976563c0 7.253906-4.84375 13.632812-11.839843 15.542968zm0 0" fill="url(#n)"/><path d="m199.757812 148.042969c-1.292968-.339844-2.585937-.675781-3.878906-1.003907-.871094-.21875-1.742187-.429687-2.609375-.644531-1.257812-.308593-2.519531-.609375-3.777343-.902343-.882813-.207032-1.761719-.410157-2.644532-.609376-1.257812-.28125-2.519531-.558593-3.78125-.832031-.871094-.1875-1.742187-.375-2.613281-.554687-1.300781-.269532-2.601563-.527344-3.902344-.78125-.824219-.164063-1.652343-.328125-2.476562-.484375-1.425781-.269531-2.855469-.523438-4.28125-.777344-.699219-.125-1.394531-.253906-2.09375-.371094-2.121094-.363281-4.242188-.710937-6.367188-1.035156-.035156-.003906-.074219-.011719-.113281-.015625-2.085938-.316406-4.175781-.613281-6.261719-.894531-.703125-.09375-1.40625-.179688-2.109375-.269531-1.425781-.183594-2.851562-.363282-4.28125-.527344-.828125-.097656-1.660156-.183594-2.488281-.277344-1.304687-.140625-2.613281-.28125-3.917969-.40625-.875-.085938-1.746094-.167969-2.621094-.246094-1.269531-.113281-2.535156-.222656-3.804687-.324218-.886719-.070313-1.773437-.140626-2.664063-.203126-1.265624-.089843-2.53125-.175781-3.796874-.253906-.875-.054687-1.753907-.109375-2.632813-.15625-1.308594-.070312-2.613281-.128906-3.917969-.183594-.832031-.035156-1.660156-.074218-2.488281-.105468-1.433594-.054688-2.871094-.089844-4.304687-.125-.699219-.015625-1.398438-.039063-2.097657-.050782-2.132812-.039062-4.261719-.0625-6.394531-.0625s-4.261719.023438-6.390625.0625c-.703125.011719-1.402344.035157-2.105469.054688-1.429687.03125-2.863281.070312-4.296875.121094-.828125.03125-1.660156.070312-2.492187.105468-1.304688.054688-2.613282.117188-3.917969.1875-.875.046876-1.753906.101563-2.628906.15625-1.269531.078126-2.535157.160157-3.800781.25-.886719.066407-1.777344.132813-2.664063.203126-1.265625.101562-2.535156.210937-3.804687.328124-.871094.078126-1.746094.15625-2.617188.242188-1.308594.128906-2.613281.269531-3.917969.410156-.832031.089844-1.660156.179688-2.488281.273438-1.429688.167968-2.855469.347656-4.285156.53125-.699219.089844-1.402344.175781-2.105469.265625-2.085937.28125-4.171875.578125-6.253906.894531-.042969.007812-.082031.011719-.121094.019531-2.125.324219-4.246094.667969-6.367187 1.03125-.699219.121094-1.394532.25-2.09375.375-1.425782.25-2.855469.503907-4.285157.777344-.824219.152344-1.648437.320313-2.472656.480469-1.300781.257812-2.605469.515625-3.90625.785156-.871094.179688-1.738281.367188-2.609375.554688-1.261719.269531-2.519531.546874-3.777344.832031-.886718.199219-1.769531.402343-2.652344.609375-1.257812.292968-2.515624.59375-3.769531.902344-.871093.210937-1.742187.425781-2.613281.644531-1.292969.328125-2.585938.664062-3.882812 1.003906-.824219.21875-1.648438.433594-2.472657.65625-.363281.097656-.726562.203125-1.089843.304687-3.882813 1.136719-7.074219 3.652344-9.113282 6.921876 69.453125 20.882812 140.539063 20.882812 209.992188 0-2.039063-3.269532-5.230469-5.785157-9.109375-6.921876-.367188-.101562-.730469-.207031-1.09375-.304687-.820313-.226563-1.648438-.441406-2.472657-.660156zm0 0" fill="url(#o)"/><path d="m203.042969 148.914062c-58.007813-15.839843-117.054688-17.15625-175.234375-3.976562v2.035156c0 4.796875 2.449218 9.015625 6.160156 11.484375l179.523438 179.523438c.894531-2.019531 1.390624-4.238281 1.390624-6.546875v-166.976563c0-7.253906-4.84375-13.636719-11.839843-15.542969zm0 0" fill="url(#q)"/><path d="m214.882812 164.457031c0-7.253906-4.84375-13.632812-11.839843-15.542969-14.441407-3.945312-28.945313-6.984374-43.484375-9.128906v7.1875c0 4.792969 2.449218 9.011719 6.160156 11.484375l49.164062 49.160157zm0 0" fill="url(#r)"/><path d="m173.28125 160.765625c-7.617188 0-13.792969-6.175781-13.792969-13.792969v-67.339844c0-28.703124-23.347656-52.050781-52.046875-52.050781-28.699218 0-52.050781 23.347657-52.050781 52.050781v67.339844c0 7.617188-6.171875 13.792969-13.789063 13.792969-7.617187 0-13.792968-6.175781-13.792968-13.792969v-67.339844c0-43.910156 35.722656-79.632812 79.632812-79.632812 43.90625 0 79.628906 35.722656 79.628906 79.632812v67.339844c0 7.617188-6.171874 13.792969-13.789062 13.792969zm0 0" fill="url(#s)"/><path d="m0 285.59375v45.839844c0 7.253906 4.84375 13.632812 11.839844 15.542968 63.320312 17.289063 127.878906 17.289063 191.203125 0 6.996093-1.910156 11.839843-8.289062 11.839843-15.542968v-45.839844zm0 0" fill="url(#t)"/><path d="m163.222656 214.683594c-14.097656-14.613282-33.875-23.703125-55.78125-23.703125-42.804687 0-77.503906 34.695312-77.503906 77.5 0 21.90625 9.09375 41.6875 23.703125 55.78125l35.1875 35.1875c38.160156 2 76.40625-2.152344 114.214844-12.472657 6.996093-1.910156 11.839843-8.292968 11.839843-15.542968v-65.09375zm0 0" fill="url(#u)"/><path d="m184.941406 268.480469c0 42.804687-34.699218 77.503906-77.5 77.503906-42.804687 0-77.503906-34.699219-77.503906-77.503906 0-42.804688 34.699219-77.5 77.503906-77.5 42.800782 0 77.5 34.695312 77.5 77.5zm0 0" fill="url(#v)"/><path d="m184.925781 269.816406-43.210937-43.207031c-3.160156-3.160156-8.285156-3.160156-11.449219 0l-17.097656 17.101563c-3.164063 3.160156-8.289063 3.160156-11.453125 0l-17.097656-17.101563c-3.164063-3.160156-8.289063-3.160156-11.453126 0l-7.59375 7.597656c-3.164062 3.160157-3.164062 8.289063 0 11.449219l17.101563 17.101562c3.160156 3.160157 3.160156 8.285157 0 11.449219l-17.101563 17.101563c-3.164062 3.160156-3.164062 8.285156 0 11.449218l43.207032 43.207032c41.742187-.707032 75.441406-34.40625 76.148437-76.148438zm0 0" fill="url(#w)"/><path d="m149.3125 291.308594-17.101562-17.101563c-3.160157-3.164062-3.160157-8.289062 0-11.449219l17.101562-17.101562c3.164062-3.164062 3.164062-8.289062 0-11.449219l-7.597656-7.597656c-3.160156-3.160156-8.285156-3.160156-11.449219 0l-17.097656 17.101563c-3.164063 3.160156-8.289063 3.160156-11.453125 0l-17.097656-17.101563c-3.164063-3.164063-8.289063-3.164063-11.453126 0l-7.59375 7.597656c-3.164062 3.160157-3.164062 8.289063 0 11.449219l17.101563 17.101562c3.160156 3.160157 3.160156 8.285157 0 11.449219l-17.101563 17.101563c-3.164062 3.160156-3.164062 8.285156 0 11.449218l7.59375 7.59375c3.164063 3.164063 8.289063 3.164063 11.453126 0l17.097656-17.097656c3.164062-3.164062 8.289062-3.164062 11.453125 0l17.097656 17.097656c3.164063 3.164063 8.289063 3.164063 11.449219 0l7.597656-7.59375c3.160156-3.164062 3.160156-8.289062 0-11.449218zm0 0" fill="url(#x)"/><path d="m179.507812 268.480469c0 39.800781-32.265624 72.070312-72.066406 72.070312-39.804687 0-72.070312-32.269531-72.070312-72.070312s32.265625-72.066407 72.070312-72.066407c39.800782 0 72.066406 32.265626 72.066406 72.066407zm0 0" fill="url(#y)"/></svg>